<svg xmlns="http://www.w3.org/2000/svg" xmlns:xlink="http://www.w3.org/1999/xlink" width="20" height="20" viewBox="0 0 20 20">
    <defs>
        <path id="a" d="M0 0h14v16.8H0z"/>
    </defs>
    <g fill="none" fill-rule="evenodd">
        <path d="M0 0h20v20H0z" opacity=".465"/>
        <g transform="translate(3 1)">
            <mask id="b" fill="#fff">
                <use xlink:href="#a"/>
            </mask>
            <path fill="#FFF" d="M9.535 2.693c.59-.72.993-1.7.88-2.693-.853.037-1.92.576-2.534 1.28-.544.62-1.03 1.637-.904 2.593.959.07 1.943-.472 2.558-1.18m2.158 6.241c-.02-2.122 1.78-3.155 1.863-3.203-1.02-1.45-2.6-1.649-3.154-1.665-1.327-.136-2.614.775-3.29.775-.69 0-1.73-.761-2.852-.739-1.443.022-2.794.838-3.534 2.105-1.529 2.583-.389 6.38 1.076 8.468.732 1.023 1.588 2.164 2.708 2.124 1.097-.043 1.506-.682 2.829-.682 1.31 0 1.695.682 2.837.656 1.177-.017 1.917-1.027 2.624-2.059.847-1.171 1.186-2.326 1.2-2.386-.027-.009-2.284-.85-2.307-3.394" mask="url(#b)"/>
        </g>
    </g>
</svg>
