<?xml version="1.0" encoding="utf-8"?>
<!-- Generator: Adobe Illustrator 26.2.1, SVG Export Plug-In . SVG Version: 6.00 Build 0)  -->
<svg version="1.1" id="레이어_1" xmlns="http://www.w3.org/2000/svg" xmlns:xlink="http://www.w3.org/1999/xlink" x="0px"
	 y="0px" viewBox="0 0 52 52" style="enable-background:new 0 0 52 52;" xml:space="preserve">
<style type="text/css">
	.st0{fill:none;stroke:#323232;stroke-width:2;}
	.st1{fill:none;stroke:#323232;stroke-width:2;stroke-linejoin:round;}
	.st2{fill:none;stroke:#D29FD7;stroke-width:1.5;stroke-linecap:round;}
</style>
<g transform="translate(9.1 7.8)">
	<path class="st0" d="M2,3.9h29.8c1.1,0,2,0.9,2,2v20.7c0,1.1-0.9,2-2,2H2c-1.1,0-2-0.9-2-2V5.9C0,4.8,0.9,3.9,2,3.9z"/>
	<path class="st1" d="M5.2,24.7h23.4v3.9H5.2V24.7z M15.6,28.6h3.9v7.8h-3.9V28.6z M23.4,28.6h3.9l1.3,7.8h-3.9L23.4,28.6z
		 M10.4,28.6H6.5l-1.3,7.8h3.9L10.4,28.6z M9.1,0H13v3.9H9.1V0z M20.8,0h3.9v3.9h-3.9V0z"/>
	<path class="st2" d="M10.4,12.4h16.9 M17.5,17.5h9.8"/>
</g>
</svg>
