<?xml version="1.0" encoding="utf-8"?>
<!-- Generator: Adobe Illustrator 26.2.1, SVG Export Plug-In . SVG Version: 6.00 Build 0)  -->
<svg version="1.1" id="레이어_1" xmlns="http://www.w3.org/2000/svg" xmlns:xlink="http://www.w3.org/1999/xlink" x="0px"
	 y="0px" viewBox="0 0 52 52" style="enable-background:new 0 0 52 52;" xml:space="preserve">
<style type="text/css">
	.st0{fill:none;stroke:#D29FD7;stroke-width:1.5;stroke-linecap:round;stroke-linejoin:round;}
	.st1{fill:none;stroke:#323232;stroke-width:1.5;stroke-linecap:square;}
	.st2{fill:none;stroke:#323232;stroke-width:2;stroke-linejoin:round;}
	.st3{fill:none;stroke:#323232;stroke-width:1.5;stroke-linecap:round;}
	.st4{fill:none;stroke:#323232;stroke-width:2;stroke-linecap:round;stroke-linejoin:round;}
</style>
<g>
	<path class="st0" d="M32.1,19.3L21.7,29.7"/>
	<path class="st1" d="M32.8,12l6.4,6.4 M9.8,37.8l3.7,3.7"/>
	<path class="st2" d="M41.5,9.7c1.8,1.8,1.8,4.7,0,6.4c0,0,0,0,0,0L16.1,41.6l-7.6,1.2l1.2-7.6L35.1,9.7C36.9,7.9,39.7,7.9,41.5,9.7
		C41.5,9.7,41.5,9.7,41.5,9.7z"/>
	<path class="st3" d="M18.4,11.6l-2.8,2.8 M22.1,15.2L19.3,18 M36.8,29.9L34,32.7 M40.4,33.6l-2.8,2.8"/>
	<path class="st4" d="M25.8,19l-6.4,6.4L7.8,13.9l6.4-6.4C14.2,7.4,25.8,19,25.8,19z M32.2,25.4l12.3,12.3l-6.4,6.4L25.8,31.9
		C25.8,31.9,32.2,25.4,32.2,25.4z"/>
</g>
</svg>
