<?xml version="1.0" encoding="utf-8"?>
<!-- Generator: Adobe Illustrator 26.2.1, SVG Export Plug-In . SVG Version: 6.00 Build 0)  -->
<svg version="1.1" id="레이어_1" xmlns="http://www.w3.org/2000/svg" xmlns:xlink="http://www.w3.org/1999/xlink" x="0px"
	 y="0px" viewBox="0 0 103.5 29.4" style="enable-background:new 0 0 103.5 29.4;" xml:space="preserve">
<style type="text/css">
	.st0{fill:#231815;}
	.st1{fill:#C197BF;}
</style>
<g>
	<g>
		<path class="st0" d="M0.3,1.4c0-0.5,0.2-0.7,0.7-0.7h16.2C17.8,0.7,18,1,18,1.4v4c0,0.5-0.2,0.7-0.7,0.7h-4.4L6.7,28.4
			C6.6,28.8,6.3,29,5.8,29H0.7c-0.5,0-0.7-0.3-0.6-0.9L6,6.2H1C0.5,6.2,0.3,6,0.3,5.5V1.4z M13,28.9c-0.5,0-0.7-0.2-0.8-0.6L10,21.5
			c0-0.2-0.1-0.3-0.1-0.4s0-0.3,0.1-0.5l2.5-8.8c0.1-0.3,0.2-0.5,0.5-0.5c0.2,0,0.4,0.1,0.5,0.5L18.8,28c0.2,0.5,0,0.8-0.5,0.8H13
			V28.9z M21.9,29.1c-0.5,0-0.7-0.2-0.7-0.7V17h-3.9c-0.5,0-0.7-0.2-0.7-0.7v-4.7c0-0.5,0.2-0.7,0.7-0.7h3.9V0.7
			c0-0.5,0.2-0.7,0.7-0.7H27c0.5,0,0.7,0.2,0.7,0.7v27.6c0,0.5-0.2,0.7-0.7,0.7L21.9,29.1L21.9,29.1z"/>
		<path class="st1" d="M41,0.9c1.6,0,3.2,0.2,4.6,0.5c1.4,0.3,2.7,0.9,3.7,1.7c1.1,0.8,1.9,1.9,2.5,3.2s0.9,3,0.9,5v7
			c0,2-0.3,3.7-0.9,5c-0.6,1.3-1.5,2.4-2.5,3.2c-1.1,0.8-2.3,1.4-3.7,1.7c-1.4,0.3-3,0.5-4.6,0.5h-8.6c-0.5,0-0.7-0.2-0.7-0.7V9
			c0-0.5,0.2-0.7,0.7-0.7h5.8C38.7,8.3,39,8.5,39,9v13.2h2c1.4,0,2.5-0.3,3.3-1s1.2-1.8,1.2-3.2v-6.5c0-1.5-0.4-2.6-1.2-3.2
			c-0.8-0.7-1.9-1-3.3-1h-9.3c-0.5,0-0.7-0.2-0.7-0.7v-5c0-0.5,0.2-0.7,0.7-0.7C31.7,0.9,41,0.9,41,0.9z"/>
		<path class="st1" d="M65.5,28.7c-1.5,0-2.8-0.2-4-0.5s-2.3-0.8-3.2-1.5s-1.6-1.6-2.1-2.7s-0.7-2.4-0.7-4v-3.1c0-1.6,0.2-2.9,0.7-4
			s1.2-2,2.1-2.7c0.9-0.7,1.9-1.2,3.2-1.5c1.2-0.4,2.5-0.5,4-0.5s2.8,0.2,4,0.5s2.3,0.8,3.2,1.5c0.9,0.7,1.6,1.6,2.1,2.7
			s0.7,2.4,0.7,4V20c0,1.6-0.2,2.9-0.7,4s-1.2,2-2.1,2.7s-1.9,1.2-3.2,1.5C68.3,28.5,66.9,28.7,65.5,28.7z M65.5,22.9
			c0.6,0,1.1-0.1,1.4-0.3c0.4-0.2,0.7-0.4,0.9-0.7c0.2-0.3,0.4-0.6,0.5-1s0.2-0.8,0.2-1.1v-2.6c0-0.4-0.1-0.8-0.2-1.1
			c-0.1-0.4-0.3-0.7-0.5-1s-0.6-0.6-0.9-0.7c-0.4-0.2-0.9-0.3-1.4-0.3c-0.6,0-1.1,0.1-1.4,0.3c-0.4,0.2-0.7,0.4-0.9,0.7
			s-0.4,0.6-0.5,1s-0.1,0.7-0.1,1.1v2.6c0,0.4,0,0.8,0.1,1.1c0.1,0.4,0.3,0.7,0.5,1s0.6,0.5,0.9,0.7C64.4,22.8,64.9,22.9,65.5,22.9z
			"/>
	</g>
	
		<image style="overflow:visible;enable-background:new    ;" width="538" height="538" xlink:href="3934AEAD.png"  transform="matrix(5.304550e-02 0 0 5.304550e-02 76.3767 0.9272)">
	</image>
</g>
</svg>
