<?xml version="1.0" encoding="utf-8"?>
<!-- Generator: Adobe Illustrator 26.2.1, SVG Export Plug-In . SVG Version: 6.00 Build 0)  -->
<svg version="1.1" id="레이어_1" xmlns="http://www.w3.org/2000/svg" xmlns:xlink="http://www.w3.org/1999/xlink" x="0px"
	 y="0px" viewBox="0 0 30 30" style="enable-background:new 0 0 30 30;" xml:space="preserve">
<style type="text/css">
	.st0{fill-rule:evenodd;clip-rule:evenodd;fill:#C298C0;}
	.st1{fill:#FFFFFF;}
</style>
<g>
	<g>
		<path id="prefix__a_00000173147464746802406870000012310934761060682647_" class="st0" d="M8.7,0h12.7c3,0,4.1,0.3,5.2,0.9
			c1.1,0.6,2,1.5,2.6,2.6C29.7,4.6,30,5.6,30,8.7v12.7c0,3-0.3,4.1-0.9,5.2c-0.6,1.1-1.5,2-2.6,2.6s-2.2,0.9-5.2,0.9H8.7
			c-3,0-4.1-0.3-5.2-0.9s-2-1.5-2.6-2.6C0.3,25.4,0,24.4,0,21.3V8.7c0-3,0.3-4.1,0.9-5.2s1.5-2,2.6-2.6S5.6,0,8.7,0z"/>
	</g>
	<g>
		<path class="st1" d="M14.4,5.6c1.1,0,2.1,0.1,3.1,0.3c1,0.2,1.8,0.6,2.5,1.2c0.7,0.5,1.3,1.3,1.7,2.2c0.4,0.9,0.6,2,0.6,3.4v4.7
			c0,1.4-0.2,2.5-0.6,3.4s-1,1.6-1.7,2.2c-0.7,0.5-1.6,0.9-2.5,1.2c-1,0.2-2,0.3-3.1,0.3H8.6c-0.3,0-0.5-0.2-0.5-0.5V11.2
			c0-0.3,0.2-0.5,0.5-0.5h3.9c0.4,0,0.5,0.2,0.5,0.5v8.9h1.3c0.9,0,1.7-0.2,2.2-0.7c0.6-0.5,0.8-1.2,0.8-2.2v-4.4
			c0-1-0.3-1.7-0.8-2.2C16,10.2,15.3,10,14.3,10H8.1c-0.3,0-0.5-0.2-0.5-0.5V6.1c0-0.3,0.2-0.5,0.5-0.5H14.4z"/>
	</g>
</g>
</svg>
