<svg width="40" height="40" viewBox="0 0 40 40" xmlns="http://www.w3.org/2000/svg">
    <g fill="none" fill-rule="evenodd">
        <path d="M0 0h40v40H0z"/>
        <path d="M11.279 6.923H28.72a3.077 3.077 0 0 1 3.065 2.807l1.765 20a3.077 3.077 0 0 1-3.065 3.347H9.514A3.077 3.077 0 0 1 6.45 29.73l1.765-20a3.077 3.077 0 0 1 3.065-2.807z" fill="#FFD6D8"/>
        <path d="M14.615 12.308a5.385 5.385 0 1 0 10.77 0" stroke="#FFF" stroke-width="2.692" stroke-linecap="round"/>
        <path d="m34.37 17.241.133.015c.586.1.98.656.88 1.243L34.3 24.835l3.12.008c.184 0 .365.048.524.137l.115.074c.478.355.578 1.029.224 1.507l-7.123 9.61a1.077 1.077 0 0 1-1.927-.823l1.082-6.339-3.118-.005c-.184 0-.364-.048-.524-.138l-.115-.074a1.077 1.077 0 0 1-.224-1.507l7.124-9.61a1.077 1.077 0 0 1 1.046-.42z" fill="#FF5861"/>
    </g>
</svg>
