<svg xmlns="http://www.w3.org/2000/svg" width="76" height="26"><g fill="#00C7AE" fill-rule="evenodd"><path d="M54.316 16.513c.363-.277.544-.664.544-1.161 0-.726-.513-1.088-1.54-1.088h-1.454l1.308-3.228c.179-.44.269-.869.269-1.284 0-.66-.263-1.217-.789-1.67-.525-.452-1.179-.678-1.961-.678-1.14 0-2.168.477-3.08 1.43-.546-.953-1.365-1.43-2.456-1.43-.506 0-.931.078-1.277.232-.347.156-.797.47-1.35.942-.172-.668-.612-1.003-1.32-1.003-.685 0-1.198.42-1.54 1.26l-2.433 5.991-.134.33a2.3 2.3 0 00-.183.832c0 .31.12.572.36.788.24.216.527.324.862.324.847 0 1.495-.55 1.943-1.65l1.43-3.51c.513-1.271 1.21-1.907 2.09-1.907.22 0 .41.067.574.202.163.134.245.291.245.47 0 .172-.062.408-.184.71l-1.38 3.411-.135.33c-.123.318-.184.595-.184.832 0 .301.118.562.355.782.236.22.521.33.855.33.856 0 1.507-.546 1.956-1.638l1.368-3.375c.245-.62.57-1.116.978-1.491.408-.375.819-.563 1.234-.563.538 0 .807.265.807.795 0 .139-.033.29-.098.452l-1.149 2.8c-.22.546-.33.978-.33 1.296 0 .465.167.84.501 1.125.334.286.77.428 1.308.428h2.481c.643 0 1.146-.138 1.51-.416"/><path d="M61.924 11.182l-.99 2.421c-.18.433-.615.648-1.308.648-.798 0-1.197-.428-1.197-1.284 0-.75.267-1.46.8-2.133s1.094-1.009 1.68-1.009c.326 0 .598.082.813.245.216.163.324.367.324.611 0 .13-.04.298-.122.501zm-4.999 11.213c-.44.464-.953.697-1.54.697-.407 0-.75-.135-1.026-.404a1.313 1.313 0 01-.415-.978c0-.563.201-.999.605-1.308.403-.31.971-.465 1.704-.465h2.114c-.52 1.174-1.002 1.993-1.442 2.458zm7.749-14.99c-.701 0-1.243.325-1.626.977-.497-.652-1.246-.978-2.249-.978-1.368 0-2.603.628-3.702 1.883-1.1 1.256-1.65 2.666-1.65 4.23 0 .971.27 1.757.812 2.36.542.604 1.249.905 2.12.905.457 0 .942-.154 1.455-.464l-.379.954h-2.627c-1.459 0-2.62.24-3.483.72-.7.392-1.253.92-1.656 1.584a4.042 4.042 0 00-.605 2.134c0 1.165.418 2.135 1.253 2.91.835.774 1.88 1.162 3.134 1.162 2.395 0 4.217-1.529 5.463-4.586l.513-1.259h2.03c.642 0 1.148-.14 1.514-.422.367-.281.55-.67.55-1.168 0-.717-.517-1.075-1.552-1.075h-1.466l3.067-7.557c.212-.521.318-.909.318-1.161 0-.318-.12-.59-.36-.814a1.235 1.235 0 00-.874-.336zM22.71 13.51c-.766.886-2.005 1.071-2.767.412-.761-.659-.757-1.912.01-2.8.767-.886 2.006-1.071 2.767-.412.762.658.757 1.912-.01 2.8zm2.053-5.163c-1.882-1.628-4.943-1.17-6.838 1.021-1.895 2.192-1.906 5.289-.024 6.917 1.881 1.628 4.943 1.17 6.837-1.021 1.895-2.192 1.906-5.289.025-6.917zm8.287 5.163c-.767.886-2.006 1.071-2.768.412s-.757-1.912.01-2.8c.767-.886 2.006-1.071 2.767-.412.762.658.757 1.912-.01 2.8zm2.052-5.163c-1.882-1.628-4.943-1.17-6.838 1.021-1.895 2.192-1.906 5.289-.024 6.917 1.881 1.628 4.942 1.17 6.837-1.021 1.895-2.192 1.906-5.289.025-6.917zm37.397 5.163c-.767.886-2.006 1.071-2.767.412-.762-.659-.758-1.912.01-2.8.766-.886 2.005-1.071 2.767-.412.761.658.757 1.912-.01 2.8zm2.052-5.163c-1.881-1.628-4.943-1.17-6.837 1.021-1.895 2.192-1.906 5.289-.025 6.917 1.882 1.628 4.943 1.17 6.838-1.021 1.895-2.192 1.906-5.289.024-6.917zM16.162 1.205C15.295.447 14.172.068 12.795.068c-1.833 0-3.405.528-4.717 1.583-1.284 1.034-2.016 2.336-2.2 3.904-.04.486-.034 1.602.626 3.028.335.643.888 1.391 1.66 2.245 1.107 1.23 1.828 2.14 2.163 2.726.334.587.5 1.24.5 1.957 0 1.133-.41 2.117-1.234 2.953-.823.835-1.792 1.253-2.908 1.253-1.01 0-1.844-.316-2.5-.948-.655-.632-.983-1.432-.983-2.402 0-.612.187-1.23.562-1.859.372-.622.836-1.108 1.393-1.458l-.004-.007a1.557 1.557 0 00-1.509-2.724l-.001-.003a7.613 7.613 0 00-.808.56C.945 12.369 0 14.232 0 16.465c0 1.826.607 3.324 1.821 4.494s2.77 1.754 4.668 1.754c2.453 0 4.437-.868 5.952-2.604 1.108-1.263 1.662-2.735 1.662-4.414 0-1.728-.628-3.366-1.882-4.915l-.648-.783-.42-.531-1.595-1.984c-.878-1.078-.51-2.22-.51-2.22.144-.543.507-1.035 1.09-1.476a3.885 3.885 0 012.4-.82c.563 0 1.013.115 1.351.343.338.229.507.53.507.905 0 .698-.437 1.14-1.307 1.332v.004a1.472 1.472 0 10.627 2.874c.695-.121 1.258-.313 1.682-.579 1.377-.856 2.066-2.086 2.066-3.692 0-1.206-.434-2.189-1.302-2.947"/></g></svg>