<?xml version="1.0" encoding="utf-8"?>
<!-- Generator: Adobe Illustrator 26.2.1, SVG Export Plug-In . SVG Version: 6.00 Build 0)  -->
<svg version="1.1" id="레이어_1" xmlns="http://www.w3.org/2000/svg" xmlns:xlink="http://www.w3.org/1999/xlink" x="0px"
	 y="0px" viewBox="0 0 52 52" style="enable-background:new 0 0 52 52;" xml:space="preserve">
<style type="text/css">
	.st0{fill:none;stroke:#323232;stroke-width:2;}
	.st1{fill:none;stroke:#D29FD7;stroke-width:1.5;stroke-linecap:round;}
	.st2{fill:none;stroke:#323232;stroke-width:2;stroke-linecap:square;}
</style>
<g transform="translate(7.845 7.845)">
	<path class="st0" d="M22.9,22.2h-9.2v-4.7c0-0.3-0.2-0.5-0.5-0.5H9.7c-0.3,0-0.5,0.2-0.5,0.5v4.7H1.5c-0.8,0-1.5-0.7-1.5-1.5V9.3
		c0-0.8,0.7-1.5,1.5-1.5h33.6c0.8,0,1.5,0.7,1.5,1.5v11.4c0,0.8-0.7,1.5-1.5,1.5h-7.7v-4.7c0-0.3-0.2-0.5-0.5-0.5h-3.6
		c-0.3,0-0.5,0.2-0.5,0.5C22.9,17.5,22.9,22.2,22.9,22.2z"/>
	<path class="st0" d="M9.7,17h3.6c0.3,0,0.5,0.2,0.5,0.5v8.2c0,0.3-0.2,0.5-0.5,0.5H9.7c-0.3,0-0.5-0.2-0.5-0.5v-8.2
		C9.2,17.2,9.4,17,9.7,17z"/>
	<path class="st0" d="M23.4,17H27c0.3,0,0.5,0.2,0.5,0.5v8.2c0,0.3-0.2,0.5-0.5,0.5h-3.6c-0.3,0-0.5-0.2-0.5-0.5v-8.2
		C22.9,17.2,23.1,17,23.4,17z"/>
	<path class="st0" d="M35.3,22.2v12.4c0,1.1-0.9,2-2,2H3.3c-1.1,0-2-0.9-2-2c0,0,0,0,0,0V22.2"/>
	<path class="st1" d="M11.4,20.7v1.6 M25.2,20.7v1.6"/>
	<g>
		<path class="st0" d="M10.5,7.8V2.6c0-1.4,1.2-2.6,2.6-2.6h9.2c1.4,0,2.6,1.2,2.6,2.6v5.2"/>
		<path class="st2" d="M10.7,3.9h14.2 M14.4,4.6v2.6 M20.9,4.6v2.6"/>
	</g>
</g>
</svg>
