<?xml version="1.0" encoding="utf-8"?>
<!-- Generator: Adobe Illustrator 26.2.1, SVG Export Plug-In . SVG Version: 6.00 Build 0)  -->
<svg version="1.1" id="레이어_1" xmlns="http://www.w3.org/2000/svg" xmlns:xlink="http://www.w3.org/1999/xlink" x="0px"
	 y="0px" viewBox="0 0 52 52" style="enable-background:new 0 0 52 52;" xml:space="preserve">
<style type="text/css">
	.st0{fill:none;stroke:#323232;stroke-width:2;stroke-linecap:round;stroke-linejoin:round;}
	.st1{fill:none;stroke:#D29FD7;stroke-width:1.5;stroke-linecap:round;stroke-linejoin:round;}
</style>
<g>
	<path class="st0" d="M42.7,12.8c-2-2-4.6-3.2-7.4-3.2c-2.8,0-5.4,1.1-7.4,3.2l-2,2.1l-2-2.1c-4.1-4.2-10.6-4.2-14.7,0
		c-4.1,4.2-4.1,11,0,15.2l2,2.1L26,45.4l14.7-15.2l2-2.1c2-2,3-4.8,3-7.6S44.7,14.8,42.7,12.8z"/>
	<path class="st1" d="M12.8,24.5h6.2l2.8-5.6L26,31.5l4.2-8.4l2.8,4.2h4.2"/>
</g>
</svg>
