<?xml version="1.0" encoding="utf-8"?>
<!-- Generator: Adobe Illustrator 26.2.1, SVG Export Plug-In . SVG Version: 6.00 Build 0)  -->
<svg version="1.1" id="레이어_1" xmlns="http://www.w3.org/2000/svg" xmlns:xlink="http://www.w3.org/1999/xlink" x="0px"
	 y="0px" viewBox="0 0 52 52" style="enable-background:new 0 0 52 52;" xml:space="preserve">
<style type="text/css">
	.st0{fill:none;stroke:#323232;stroke-width:2;}
	.st1{fill:none;stroke:#323232;stroke-width:2;stroke-linejoin:round;}
	.st2{fill-rule:evenodd;clip-rule:evenodd;fill:#D29FD7;}
	.st3{fill-rule:evenodd;clip-rule:evenodd;fill:#C89CC6;}
</style>
<g>
	<path class="st0" d="M26,12.7L6.9,24.1c-1,0.6-2.4,0.3-3-0.8c0-0.1-0.1-0.1-0.1-0.2l0-0.1c-0.6-1.2-0.1-2.6,1-3.2L24.5,8
		c0.4-0.4,1-0.6,1.5-0.6c0.5,0,1.1,0.2,1.5,0.6l19.7,11.8c1.1,0.7,1.5,2.1,1,3.2l0,0.1c-0.5,1.1-1.8,1.5-2.9,1
		c-0.1,0-0.1-0.1-0.2-0.1L26,12.7z"/>
	<path class="st1" d="M42.8,22.7v18.8c0,1.5-1.2,2.7-2.6,2.7H11.8c-1.4,0-2.6-1.2-2.6-2.7V22.7"/>
	<path class="st1" d="M22.1,28h7.7v16.1h-7.7V28z"/>
	<path class="st2" d="M13.7,28h4.5v1.4h-4.5L13.7,28z"/>
	<path class="st1" d="M13.7,24h4.5v9.4h-4.5L13.7,24z"/>
	<g>
		<path class="st3" d="M33.9,28h4.5v1.4h-4.5V28z"/>
		<path class="st1" d="M33.9,24h4.5v9.4h-4.5V24z"/>
	</g>
</g>
</svg>
