<svg width="34" height="20" xmlns="http://www.w3.org/2000/svg"><rect fill="#FFF0F1" width="34" height="20" rx="4"/><path d="M6.97 14h1.1v-3.47c0-.8-.09-1.65-.15-2.41h.05l.77 1.54L11.18 14h1.19V6.63h-1.1v3.44c0 .8.09 1.69.15 2.45h-.05l-.77-1.56-2.44-4.33H6.97V14zm7.14 0h4.46v-.98h-3.3v-2.38h2.7v-.98h-2.7V7.61h3.19v-.98h-4.35zm6.56 0h1.4l.97-4.09c.12-.58.24-1.13.35-1.69h.04c.1.56.21 1.11.34 1.69l.99 4.09h1.43l1.45-7.37h-1.11l-.7 3.84c-.12.77-.25 1.56-.37 2.36h-.05c-.17-.8-.33-1.59-.5-2.36l-.95-3.84h-1.03l-.95 3.84c-.17.78-.34 1.57-.5 2.36h-.04c-.13-.79-.26-1.58-.39-2.36l-.69-3.84h-1.19l1.5 7.37z" fill="#FF5861"/></svg>