<?xml version="1.0" encoding="utf-8"?>
<!-- Generator: Adobe Illustrator 26.2.1, SVG Export Plug-In . SVG Version: 6.00 Build 0)  -->
<svg version="1.1" id="레이어_1" xmlns="http://www.w3.org/2000/svg" xmlns:xlink="http://www.w3.org/1999/xlink" x="0px"
	 y="0px" viewBox="0 0 52 52" style="enable-background:new 0 0 52 52;" xml:space="preserve">
<style type="text/css">
	.st0{fill-rule:evenodd;clip-rule:evenodd;fill:#D29FD7;}
	.st1{fill:none;stroke:#323232;stroke-width:1.5;stroke-linejoin:round;}
	.st2{fill:none;stroke:#323232;stroke-width:2;}
</style>
<g>
	<g transform="translate(22.1 31.85)">
		<circle class="st0" cx="7.9" cy="1.9" r="1"/>
		<circle class="st0" cx="4.5" cy="1.9" r="1"/>
		<circle class="st0" cx="1.1" cy="1.9" r="1"/>
	</g>
	<path class="st1" d="M18.9,30.5h14.3v11H18.9L18.9,30.5z"/>
	<path class="st2" d="M33.4,23.9l3.3,2c0.6,0.4,1,1,1,1.7v15.9c0,1.1-0.9,2-2,2H16.2c-1.1,0-2-0.9-2-2V27.6c0-0.7,0.4-1.3,1-1.7
		l3.3-2v-7.8c0-1.1,0.9-2,2-2h10.9c1.1,0,2,0.9,2,2V23.9z"/>
	<path class="st2" d="M29.9,9.1c0-2.2-1.7-3.9-3.9-3.9S22.1,7,22.1,9.1v4.9h7.8C29.9,14.1,29.9,9.1,29.9,9.1z M37.8,28.7h6
		c0.9,0,1.7,0.8,1.7,1.7s-0.8,1.7-1.7,1.7l0,0h-6V28.7z M14.2,28.7h-6c-0.9,0-1.7,0.8-1.7,1.7s0.8,1.7,1.7,1.7h6V28.7z"/>
</g>
</svg>
