<svg xmlns="http://www.w3.org/2000/svg" xmlns:xlink="http://www.w3.org/1999/xlink" width="30" height="30" viewBox="0 0 30 30">
    <defs>
        <linearGradient id="prefix__b" x1="50%" x2="50%" y1="0%" y2="100%">
            <stop offset="0%" stop-color="#36CEF9"/>
            <stop offset="100%" stop-color="#279DF4"/>
        </linearGradient>
        <linearGradient id="prefix__d" x1="100%" x2="0%" y1="0%" y2="100%">
            <stop offset="0%" stop-color="#30B5A1"/>
            <stop offset="100%" stop-color="#1296A2"/>
        </linearGradient>
        <path id="prefix__a" d="M8.653 0h12.694c3.009 0 4.1.313 5.2.902 1.1.588 1.963 1.451 2.551 2.551.589 1.1.902 2.191.902 5.2v12.694c0 3.009-.313 4.1-.902 5.2-.588 1.1-1.451 1.963-2.551 2.551-1.1.589-2.191.902-5.2.902H8.653c-3.009 0-4.1-.313-5.2-.902-1.1-.588-1.963-1.451-2.551-2.551-.589-1.1-.902-2.191-.902-5.2V8.653c0-3.009.313-4.1.902-5.2.588-1.1 1.451-1.963 2.551-2.551C4.553.313 5.644 0 8.653 0z"/>
        <path id="prefix__e" d="M14.41 6.196c-1.157.934-1.817 2.11-1.982 3.526-.037.44-.031 1.447.564 2.735.301.58.8 1.257 1.496 2.028.998 1.112 1.648 1.932 1.95 2.463.3.53.451 1.119.451 1.767 0 1.023-.37 1.912-1.112 2.667-.742.755-1.616 1.132-2.622 1.132-.911 0-1.662-.286-2.253-.856-.591-.57-.887-1.294-.887-2.17 0-.552.169-1.112.507-1.679.335-.562.754-1.001 1.255-1.317l-.003-.006c.421-.243.705-.698.705-1.22 0-.777-.628-1.407-1.404-1.407-.239 0-.464.06-.661.166l-.002-.002c-.237.142-.48.31-.727.506-1.704 1.347-2.556 3.03-2.556 5.047 0 1.65.547 3.002 1.641 4.059 1.095 1.056 2.497 1.585 4.209 1.585 2.21 0 3.999-.784 5.365-2.353.998-1.141 1.498-2.47 1.498-3.987 0-1.56-.566-3.04-1.697-4.44l-.584-.706-.38-.48-1.436-1.792c-.792-.974-.46-2.006-.46-2.006.13-.49.457-.934.982-1.333.65-.493 1.371-.74 2.165-.74.506 0 .912.103 1.217.31.304.206.457.478.457.817 0 .63-.394 1.03-1.178 1.203v.003c-.608.122-1.066.659-1.066 1.304 0 .734.594 1.33 1.326 1.33.105 0 .207-.014.305-.038.627-.11 1.134-.282 1.516-.522 1.241-.773 1.862-1.885 1.862-3.336 0-1.089-.39-1.977-1.173-2.661-.782-.685-1.794-1.027-3.035-1.027-1.652 0-3.07.476-4.252 1.43z"/>
    </defs>
    <g fill="none" fill-rule="evenodd">
        <mask id="prefix__c" fill="#fff">
            <use xlink:href="#prefix__a"/>
        </mask>
        <use fill="url(#prefix__b)" xlink:href="#prefix__a"/>
        <g mask="url(#prefix__c)">
            <path fill="url(#prefix__d)" d="M0 30L30 30 30 0 0 0z"/>
            <use fill="#FFF" xlink:href="#prefix__e"/>
        </g>
    </g>
</svg>
